P3
25 25
255
255 0 0
255 0 0
255 0 0
255 0 0
255 0 0
255 255 0
255 255 0
255 255 0
255 255 0
255 255 0
0 255 0
0 255 0
0 255 0
0 255 0
0 255 0
255 255 255
255 255 255
255 255 255
255 255 255
255 255 255
0 255 255
0 255 255
0 255 255
0 255 255
0 255 255
255 0 0
255 0 0
255 0 0
255 0 0
255 0 0
255 255 0
255 255 0
255 255 0
255 255 0
255 255 0
0 255 0
0 255 0
0 255 0
0 255 0
0 255 0
255 255 255
255 255 255
255 255 255
255 255 255
255 255 255
0 255 255
0 255 255
0 255 255
0 255 255
0 255 255
255 0 0
255 0 0
255 0 0
255 0 0
255 0 0
255 255 0
255 255 0
255 255 0
255 255 0
255 255 0
0 255 0
0 255 0
0 255 0
0 255 0
0 255 0
255 255 255
255 255 255
255 255 255
255 255 255
255 255 255
0 255 255
0 255 255
0 255 255
0 255 255
0 255 255
255 0 0
255 0 0
255 0 0
255 0 0
255 0 0
255 255 0
255 255 0
255 255 0
255 255 0
255 255 0
0 255 0
0 255 0
0 255 0
0 255 0
0 255 0
255 255 255
255 255 255
255 255 255
255 255 255
255 255 255
0 255 255
0 255 255
0 255 255
0 255 255
0 255 255
255 0 0
255 0 0
255 0 0
255 0 0
255 0 0
255 255 0
255 255 0
255 255 0
255 255 0
255 255 0
0 255 0
0 255 0
0 255 0
0 255 0
0 255 0
255 255 255
255 255 255
255 255 255
255 255 255
255 255 255
0 255 255
0 255 255
0 255 255
0 255 255
0 255 255
255 255 0
255 255 0
255 255 0
255 255 0
255 255 0
0 255 0
0 255 0
0 255 0
0 255 0
0 255 0
255 255 255
255 255 255
255 255 255
255 255 255
255 255 255
0 255 255
0 255 255
0 255 255
0 255 255
0 255 255
255 0 0
255 0 0
255 0 0
255 0 0
255 0 0
255 255 0
255 255 0
255 255 0
255 255 0
255 255 0
0 255 0
0 255 0
0 255 0
0 255 0
0 255 0
255 255 255
255 255 255
255 255 255
255 255 255
255 255 255
0 255 255
0 255 255
0 255 255
0 255 255
0 255 255
255 0 0
255 0 0
255 0 0
255 0 0
255 0 0
255 255 0
255 255 0
255 255 0
255 255 0
255 255 0
0 255 0
0 255 0
0 255 0
0 255 0
0 255 0
255 255 255
255 255 255
255 255 255
255 255 255
255 255 255
0 255 255
0 255 255
0 255 255
0 255 255
0 255 255
255 0 0
255 0 0
255 0 0
255 0 0
255 0 0
255 255 0
255 255 0
255 255 0
255 255 0
255 255 0
0 255 0
0 255 0
0 255 0
0 255 0
0 255 0
255 255 255
255 255 255
255 255 255
255 255 255
255 255 255
0 255 255
0 255 255
0 255 255
0 255 255
0 255 255
255 0 0
255 0 0
255 0 0
255 0 0
255 0 0
255 255 0
255 255 0
255 255 0
255 255 0
255 255 0
0 255 0
0 255 0
0 255 0
0 255 0
0 255 0
255 255 255
255 255 255
255 255 255
255 255 255
255 255 255
0 255 255
0 255 255
0 255 255
0 255 255
0 255 255
255 0 0
255 0 0
255 0 0
255 0 0
255 0 0
0 255 0
0 255 0
0 255 0
0 255 0
0 255 0
255 255 255
255 255 255
255 255 255
255 255 255
255 255 255
0 255 255
0 255 255
0 255 255
0 255 255
0 255 255
255 0 0
255 0 0
255 0 0
255 0 0
255 0 0
255 255 0
255 255 0
255 255 0
255 255 0
255 255 0
0 255 0
0 255 0
0 255 0
0 255 0
0 255 0
255 255 255
255 255 255
255 255 255
255 255 255
255 255 255
0 255 255
0 255 255
0 255 255
0 255 255
0 255 255
255 0 0
255 0 0
255 0 0
255 0 0
255 0 0
255 255 0
255 255 0
255 255 0
255 255 0
255 255 0
0 255 0
0 255 0
0 255 0
0 255 0
0 255 0
255 255 255
255 255 255
255 255 255
255 255 255
255 255 255
0 255 255
0 255 255
0 255 255
0 255 255
0 255 255
255 0 0
255 0 0
255 0 0
255 0 0
255 0 0
255 255 0
255 255 0
255 255 0
255 255 0
255 255 0
0 255 0
0 255 0
0 255 0
0 255 0
0 255 0
255 255 255
255 255 255
255 255 255
255 255 255
255 255 255
0 255 255
0 255 255
0 255 255
0 255 255
0 255 255
255 0 0
255 0 0
255 0 0
255 0 0
255 0 0
255 255 0
255 255 0
255 255 0
255 255 0
255 255 0
0 255 0
0 255 0
0 255 0
0 255 0
0 255 0
255 255 255
255 255 255
255 255 255
255 255 255
255 255 255
0 255 255
0 255 255
0 255 255
0 255 255
0 255 255
255 0 0
255 0 0
255 0 0
255 0 0
255 0 0
255 255 0
255 255 0
255 255 0
255 255 0
255 255 0
255 255 255
255 255 255
255 255 255
255 255 255
255 255 255
0 255 255
0 255 255
0 255 255
0 255 255
0 255 255
255 0 0
255 0 0
255 0 0
255 0 0
255 0 0
255 255 0
255 255 0
255 255 0
255 255 0
255 255 0
0 255 0
0 255 0
0 255 0
0 255 0
0 255 0
255 255 255
255 255 255
255 255 255
255 255 255
255 255 255
0 255 255
0 255 255
0 255 255
0 255 255
0 255 255
255 0 0
255 0 0
255 0 0
255 0 0
255 0 0
255 255 0
255 255 0
255 255 0
255 255 0
255 255 0
0 255 0
0 255 0
0 255 0
0 255 0
0 255 0
255 255 255
255 255 255
255 255 255
255 255 255
255 255 255
0 255 255
0 255 255
0 255 255
0 255 255
0 255 255
255 0 0
255 0 0
255 0 0
255 0 0
255 0 0
255 255 0
255 255 0
255 255 0
255 255 0
255 255 0
0 255 0
0 255 0
0 255 0
0 255 0
0 255 0
255 255 255
255 255 255
255 255 255
255 255 255
255 255 255
0 255 255
0 255 255
0 255 255
0 255 255
0 255 255
255 0 0
255 0 0
255 0 0
255 0 0
255 0 0
255 255 0
255 255 0
255 255 0
255 255 0
255 255 0
0 255 0
0 255 0
0 255 0
0 255 0
0 255 0
255 255 255
255 255 255
255 255 255
255 255 255
255 255 255
0 255 255
0 255 255
0 255 255
0 255 255
0 255 255
255 0 0
255 0 0
255 0 0
255 0 0
255 0 0
255 255 0
255 255 0
255 255 0
255 255 0
255 255 0
0 255 0
0 255 0
0 255 0
0 255 0
0 255 0
0 255 255
0 255 255
0 255 255
0 255 255
0 255 255
255 0 0
255 0 0
255 0 0
255 0 0
255 0 0
255 255 0
255 255 0
255 255 0
255 255 0
255 255 0
0 255 0
0 255 0
0 255 0
0 255 0
0 255 0
255 255 255
255 255 255
255 255 255
255 255 255
255 255 255
0 255 255
0 255 255
0 255 255
0 255 255
0 255 255
255 0 0
255 0 0
255 0 0
255 0 0
255 0 0
255 255 0
255 255 0
255 255 0
255 255 0
255 255 0
0 255 0
0 255 0
0 255 0
0 255 0
0 255 0
255 255 255
255 255 255
255 255 255
255 255 255
255 255 255
0 255 255
0 255 255
0 255 255
0 255 255
0 255 255
255 0 0
255 0 0
255 0 0
255 0 0
255 0 0
255 255 0
255 255 0
255 255 0
255 255 0
255 255 0
0 255 0
0 255 0
0 255 0
0 255 0
0 255 0
255 255 255
255 255 255
255 255 255
255 255 255
255 255 255
0 255 255
0 255 255
0 255 255
0 255 255
0 255 255
255 0 0
255 0 0
255 0 0
255 0 0
255 0 0
255 255 0
255 255 0
255 255 0
255 255 0
255 255 0
0 255 0
0 255 0
0 255 0
0 255 0
0 255 0
255 255 255
255 255 255
255 255 255
255 255 255
255 255 255
0 255 255
0 255 255
0 255 255
0 255 255
0 255 255
255 0 0
255 0 0
255 0 0
255 0 0
255 0 0
255 255 0
255 255 0
255 255 0
255 255 0
255 255 0
0 255 0
0 255 0
0 255 0
0 255 0
0 255 0
255 255 255
255 255 255
255 255 255
255 255 255
255 255 255